<svg width="21" height="17" viewBox="0 0 21 17" fill="none" xmlns="http://www.w3.org/2000/svg">
<path d="M10.3001 11.9002C10.214 11.9003 10.1287 11.8828 10.0495 11.8489C9.97034 11.815 9.89886 11.7654 9.8394 11.703L5.3769 7.02804C5.2907 6.93779 5.23288 6.82421 5.21063 6.7014C5.18838 6.57859 5.20267 6.45194 5.25173 6.33718C5.30078 6.22241 5.38245 6.12457 5.4866 6.05579C5.59074 5.98701 5.71279 5.95031 5.8376 5.95024H8.1751V1.06274C8.1751 0.477094 8.65195 0.000244141 9.2376 0.000244141H11.3626C11.9482 0.000244141 12.4251 0.477094 12.4251 1.06274V5.95024H14.7626C14.8874 5.95031 15.0095 5.98701 15.1136 6.05579C15.2177 6.12457 15.2994 6.22241 15.3485 6.33718C15.3975 6.45194 15.4118 6.57859 15.3896 6.7014C15.3673 6.82421 15.3095 6.93779 15.2233 7.02804L10.7608 11.703C10.7013 11.7654 10.6299 11.815 10.5507 11.8489C10.4715 11.8828 10.3862 11.9003 10.3001 11.9002ZM19.0126 17.0002H1.5876C0.767348 17.0002 0.100098 16.333 0.100098 15.5127V15.0877C0.100098 14.2675 0.767348 13.6002 1.5876 13.6002H19.0126C19.8328 13.6002 20.5001 14.2675 20.5001 15.0877V15.5127C20.5001 16.333 19.8328 17.0002 19.0126 17.0002Z" fill="#0D224A"/>
</svg>
