<svg width="40" height="35" viewBox="0 0 40 35" fill="none" xmlns="http://www.w3.org/2000/svg">
<rect x="0.283203" width="38.9414" height="35" rx="8" fill="#FFE2E2"/>
<path d="M25.7305 10.9922H22.7692L22.4455 10.0214C22.3466 9.72382 22.1564 9.46498 21.9019 9.28163C21.6475 9.09828 21.3418 8.99974 21.0282 9H18.4796C18.166 8.99979 17.8602 9.09835 17.6057 9.28168C17.3512 9.46502 17.1609 9.72382 17.0618 10.0214L16.7385 10.9922H13.7773C12.9534 10.9922 12.2832 11.6624 12.2832 12.4863V13.4824C12.2832 14.0372 12.7826 13.9805 13.3186 13.9805H26.7266C27.0018 13.9805 27.2246 13.7577 27.2246 13.4824V12.4863C27.2246 11.6624 26.5544 10.9922 25.7305 10.9922ZM17.7887 10.9922L18.0069 10.3366C18.0399 10.2374 18.1034 10.1511 18.1882 10.09C18.2731 10.0289 18.375 9.99601 18.4796 9.99609H21.0282C21.2427 9.99609 21.4329 10.1328 21.5005 10.3366L21.7189 10.9922H17.7887ZM13.401 15.043L14.1951 24.6411C14.2657 25.4159 14.9053 26 15.683 26H23.8249C24.6026 26 25.2422 25.4159 25.3132 24.6367L26.1069 15.043H13.401ZM17.2637 23.5098C17.2637 24.1663 16.2676 24.169 16.2676 23.5098V16.5371C16.2676 15.8806 17.2637 15.8779 17.2637 16.5371V23.5098ZM20.252 23.5098C20.252 24.1663 19.2559 24.169 19.2559 23.5098V16.5371C19.2559 15.8806 20.252 15.8779 20.252 16.5371V23.5098ZM23.2402 23.5098C23.2402 24.1663 22.2441 24.169 22.2441 23.5098V16.5371C22.2441 16.2618 22.4669 16.0391 22.7422 16.0391C23.0175 16.0391 23.2402 16.2618 23.2402 16.5371V23.5098Z" fill="#A90101"/>
</svg>
