<svg width="40" height="35" viewBox="0 0 40 35" fill="none" xmlns="http://www.w3.org/2000/svg">
<rect x="0.224609" width="39" height="35" rx="8" fill="#EAF1FE"/>
<path d="M21.6868 10.3885L22.3887 9.6866C23.2182 8.85707 24.6619 8.85707 25.4914 9.6866L26.0578 10.2529C26.2621 10.4555 26.4242 10.6965 26.5349 10.9621C26.6456 11.2277 26.7026 11.5126 26.7026 11.8003C26.7026 12.088 26.6456 12.3729 26.5349 12.6385C26.4242 12.9041 26.2621 13.1451 26.0578 13.3477L25.3558 14.0496L21.6868 10.3805V10.3885ZM20.8413 11.234L13.5749 18.5004C13.3436 18.7317 13.2 19.0348 13.1761 19.3618L12.9608 21.6988C12.9368 21.994 13.0405 22.2811 13.2479 22.4965C13.4393 22.6879 13.6866 22.7916 13.9498 22.7916H14.0375L16.3746 22.5762C16.7016 22.5443 17.0047 22.4007 17.236 22.1694L24.5024 14.9031L20.8333 11.234H20.8413ZM28.2991 25.336C28.2991 25.009 28.0279 24.7378 27.7009 24.7378H11.7484C11.4213 24.7378 11.1501 25.009 11.1501 25.336C11.1501 25.663 11.4213 25.9342 11.7484 25.9342H27.7009C28.0279 25.9342 28.2991 25.663 28.2991 25.336Z" fill="#1A4595"/>
</svg>
