<svg width="35" height="33" viewBox="0 0 35 33" fill="none" xmlns="http://www.w3.org/2000/svg">
<path d="M32.8873 4.81055H30.7747V11.1486H35V6.92322C35 5.75632 34.0542 4.81055 32.8873 4.81055Z" fill="#FFA436"/>
<path d="M32.8873 6.92298L26.5493 15.3737H0V2.69764C0 1.53073 0.945774 0.584961 2.11267 0.584961H12.3993C12.9598 0.584961 13.4972 0.807496 13.8936 1.20397L17.5 4.81031H30.7746C31.9415 4.81031 32.8873 5.75608 32.8873 6.92298Z" fill="#FFBC2B"/>
<path d="M30.7747 6.92285L26.5493 12.2045H32.8873V6.92285H30.7747Z" fill="#8AE7FF"/>
<path d="M30.7745 6.92285V17.4862L2.11255 9.03553V6.92285H30.7745Z" fill="#BDF2FF"/>
<path d="M2.11255 9.03516H22.6006V15.3732H2.11255V9.03516Z" fill="white"/>
<path d="M32.8873 9.03516L30.7747 11.1478V32.4154H32.8873C34.0542 32.4154 35 31.4696 35 30.3027V11.1478C35 9.98093 34.0542 9.03516 32.8873 9.03516Z" fill="#FFBC2B"/>
<path d="M32.8873 9.03516V30.3027C32.8873 31.4696 31.9415 32.4154 30.7746 32.4154H2.11267C0.945774 32.4154 0 31.4696 0 30.3027V15.3732C0 14.2063 0.945774 13.2605 2.11267 13.2605H17.5L21.1063 9.65417C21.3025 9.4579 21.5355 9.30222 21.7919 9.196C22.0483 9.08979 22.3231 9.03513 22.6007 9.03516H32.8873Z" fill="#FFCF66"/>
</svg>
