<svg width="42" height="44" viewBox="0 0 42 44" fill="none" xmlns="http://www.w3.org/2000/svg">
<path d="M22.7954 2.71807L33.8963 0.807838L41.2499 41.3592L30.149 43.2694L22.7954 2.71807Z" fill="#FFB300"/>
<path d="M30.1731 43.2632L41.2274 41.3646L34.133 2.17255L24.4219 3.84058L31.5163 43.0319L30.1731 43.2632Z" fill="#FFD648"/>
<path d="M34.6993 39.6561C36.2554 39.6561 37.5168 38.4273 37.5168 36.9115C37.5168 35.3957 36.2554 34.1669 34.6993 34.1669C33.1433 34.1669 31.8818 35.3957 31.8818 36.9115C31.8818 38.4273 33.1433 39.6561 34.6993 39.6561Z" fill="#F9FDFF"/>
<path d="M26.061 4.94461L31.6115 3.98949L34.5529 20.21L29.0025 21.1651L26.061 4.94461Z" fill="#F9FDFF"/>
<path d="M30.4111 9.24095L29.0239 9.47972C28.7366 9.52917 28.5448 9.79614 28.5956 10.076C28.6463 10.3559 28.9204 10.5427 29.2077 10.4932L30.595 10.2545C30.8823 10.205 31.074 9.93805 31.0233 9.65818C30.9725 9.3783 30.6984 9.1915 30.4111 9.24095Z" fill="#828C96"/>
<path d="M29.9204 6.5388L28.5332 6.77757C28.2458 6.82702 28.0541 7.09399 28.1049 7.37386C28.1556 7.65374 28.4297 7.84054 28.717 7.79109L30.1042 7.55232C30.3916 7.50287 30.5833 7.2359 30.5325 6.95602C30.4818 6.67614 30.2077 6.48935 29.9204 6.5388Z" fill="#828C96"/>
<path d="M30.9006 11.9519L29.5127 12.1908C29.2253 12.2402 29.0336 12.5072 29.0843 12.7871C29.1351 13.0669 29.4092 13.2537 29.6965 13.2043L31.0844 12.9654C31.3717 12.916 31.5635 12.649 31.5127 12.3691C31.462 12.0892 31.1879 11.9024 30.9006 11.9519Z" fill="#828C96"/>
<path d="M31.3921 14.6465L30.0048 14.8853C29.7175 14.9347 29.5258 15.2017 29.5765 15.4816C29.6273 15.7615 29.9014 15.9483 30.1887 15.8988L31.5759 15.66C31.8632 15.6106 32.055 15.3436 32.0042 15.0637C31.9535 14.7839 31.6794 14.5971 31.3921 14.6465Z" fill="#828C96"/>
<path d="M31.8801 17.3582L30.4921 17.5971C30.2048 17.6465 30.0131 17.9135 30.0638 18.1934C30.1146 18.4732 30.3887 18.66 30.676 18.6106L32.0639 18.3717C32.3512 18.3223 32.543 18.0553 32.4922 17.7754C32.4415 17.4955 32.1674 17.3087 31.8801 17.3582Z" fill="#828C96"/>
<path d="M0.25 0.729599H11.5199V43.2707H0.25V0.729599Z" fill="#FC3C1D"/>
<path d="M1.65869 2.10189H11.5199V43.2707H1.65869V2.10189Z" fill="#FF5A21"/>
<path d="M5.88486 40.5262C7.44092 40.5262 8.70234 39.2974 8.70234 37.7816C8.70234 36.2658 7.44092 35.037 5.88486 35.037C4.32881 35.037 3.06738 36.2658 3.06738 37.7816C3.06738 39.2974 4.32881 40.5262 5.88486 40.5262Z" fill="#F9FDFF"/>
<path d="M3.06738 3.47418H8.70234V19.9417H3.06738V3.47418Z" fill="#F9FDFF"/>
<path d="M6.58936 13.9379H5.18062C4.88886 13.9379 4.65234 14.1683 4.65234 14.4526C4.65234 14.7368 4.88886 14.9672 5.18062 14.9672H6.58936C6.88112 14.9672 7.11764 14.7368 7.11764 14.4526C7.11764 14.1683 6.88112 13.9379 6.58936 13.9379Z" fill="#828C96"/>
<path d="M6.58936 16.6825H5.18062C4.88886 16.6825 4.65234 16.9129 4.65234 17.1971C4.65234 17.4814 4.88886 17.7118 5.18062 17.7118H6.58936C6.88112 17.7118 7.11764 17.4814 7.11764 17.1971C7.11764 16.9129 6.88112 16.6825 6.58936 16.6825Z" fill="#828C96"/>
<path d="M6.58936 11.1934H5.18062C4.88886 11.1934 4.65234 11.4238 4.65234 11.708C4.65234 11.9922 4.88886 12.2226 5.18062 12.2226H6.58936C6.88112 12.2226 7.11764 11.9922 7.11764 11.708C7.11764 11.4238 6.88112 11.1934 6.58936 11.1934Z" fill="#828C96"/>
<path d="M6.58936 8.44878H5.18062C4.88886 8.44878 4.65234 8.67918 4.65234 8.96339C4.65234 9.2476 4.88886 9.478 5.18062 9.478H6.58936C6.88112 9.478 7.11764 9.2476 7.11764 8.96339C7.11764 8.67918 6.88112 8.44878 6.58936 8.44878Z" fill="#828C96"/>
<path d="M6.58936 5.70419H5.18062C4.88886 5.70419 4.65234 5.93458 4.65234 6.2188C4.65234 6.50301 4.88886 6.73341 5.18062 6.73341H6.58936C6.88112 6.73341 7.11764 6.50301 7.11764 6.2188C7.11764 5.93458 6.88112 5.70419 6.58936 5.70419Z" fill="#828C96"/>
<path d="M11.52 0.729599H22.7899V43.2707H11.52V0.729599Z" fill="#007D93"/>
<path d="M12.9287 2.10189H22.7899V43.2707H12.9287V2.10189Z" fill="#00A5AB"/>
<path d="M17.1549 40.5262C18.7109 40.5262 19.9724 39.2974 19.9724 37.7816C19.9724 36.2658 18.7109 35.037 17.1549 35.037C15.5988 35.037 14.3374 36.2658 14.3374 37.7816C14.3374 39.2974 15.5988 40.5262 17.1549 40.5262Z" fill="#F9FDFF"/>
<path d="M14.3374 3.47418H19.9724V19.9417H14.3374V3.47418Z" fill="#F9FDFF"/>
<path d="M17.8594 13.9379H16.4506C16.1589 13.9379 15.9224 14.1683 15.9224 14.4526C15.9224 14.7368 16.1589 14.9672 16.4506 14.9672H17.8594C18.1511 14.9672 18.3877 14.7368 18.3877 14.4526C18.3877 14.1683 18.1511 13.9379 17.8594 13.9379Z" fill="#828C96"/>
<path d="M17.8594 16.6825H16.4506C16.1589 16.6825 15.9224 16.9129 15.9224 17.1971C15.9224 17.4814 16.1589 17.7118 16.4506 17.7118H17.8594C18.1511 17.7118 18.3877 17.4814 18.3877 17.1971C18.3877 16.9129 18.1511 16.6825 17.8594 16.6825Z" fill="#828C96"/>
<path d="M17.8594 11.1934H16.4506C16.1589 11.1934 15.9224 11.4238 15.9224 11.708C15.9224 11.9922 16.1589 12.2226 16.4506 12.2226H17.8594C18.1511 12.2226 18.3877 11.9922 18.3877 11.708C18.3877 11.4238 18.1511 11.1934 17.8594 11.1934Z" fill="#828C96"/>
<path d="M17.8594 8.44878H16.4506C16.1589 8.44878 15.9224 8.67918 15.9224 8.96339C15.9224 9.2476 16.1589 9.478 16.4506 9.478H17.8594C18.1511 9.478 18.3877 9.2476 18.3877 8.96339C18.3877 8.67918 18.1511 8.44878 17.8594 8.44878Z" fill="#828C96"/>
<path d="M17.8594 5.70419H16.4506C16.1589 5.70419 15.9224 5.93458 15.9224 6.2188C15.9224 6.50301 16.1589 6.73341 16.4506 6.73341H17.8594C18.1511 6.73341 18.3877 6.50301 18.3877 6.2188C18.3877 5.93458 18.1511 5.70419 17.8594 5.70419Z" fill="#828C96"/>
</svg>
