<svg width="42" height="44" viewBox="0 0 42 44" fill="none" xmlns="http://www.w3.org/2000/svg">
<path d="M41.1787 19.352V38.8758C41.1787 41.3017 39.2097 43.2707 36.7838 43.2707H4.57364C2.14771 43.2707 0.178711 41.3017 0.178711 38.8758V19.352L17.584 2.01319C19.2954 0.301737 22.0703 0.301737 23.7901 2.01319L41.1787 19.352Z" fill="#FF9D00"/>
<path d="M8.0131 5.62717H33.394C35.82 5.62717 37.789 7.59616 37.789 10.0221V35.403C37.789 37.829 35.82 39.798 33.394 39.798H8.0131C5.58716 39.798 3.61816 37.829 3.61816 35.403V10.0138C3.61816 7.58785 5.58716 5.62717 8.0131 5.62717Z" fill="#F4EEE6"/>
<path d="M41.1787 19.352V38.8758C41.1787 41.3018 39.2097 43.2707 36.7838 43.2707H4.57364C2.14771 43.2707 0.178711 41.3018 0.178711 38.8758V19.4102L20.6496 39.8811L41.1787 19.352Z" fill="#FFBE1D"/>
<path d="M39.9077 41.9747C39.2181 42.6726 38.2876 43.1378 37.2574 43.2541L4.42421 43.2707C3.2694 43.2292 2.22259 42.739 1.45825 41.9747L17.5758 25.8572C19.2872 24.1457 22.0704 24.1457 23.7902 25.8572L39.9077 41.9747Z" fill="#FFE000"/>
<path d="M13.3635 15.0983C13.3635 11.0523 16.6369 7.77895 20.6829 7.77895C24.7289 7.77895 28.0022 11.0606 28.0022 15.0983C28.0022 19.136 24.7289 22.4176 20.6829 22.4176C16.6369 22.4176 13.3635 19.136 13.3635 15.0983Z" fill="#00BF00"/>
<path d="M19.6776 19.1277L17.5673 17.0174C17.2849 16.735 17.2849 16.2697 17.5673 15.9789C17.8498 15.6882 18.315 15.6965 18.6058 15.9789L19.4615 16.8347V11.5757C19.4615 11.1686 19.7856 10.8446 20.1927 10.8446H23.2749C23.682 10.8446 24.006 11.1686 24.006 11.5757C24.006 11.9828 23.6737 12.3068 23.2749 12.3068H20.9238V16.8347L21.7795 15.9789C22.062 15.6965 22.5272 15.6965 22.818 15.9789C23.1005 16.2614 23.1005 16.7267 22.818 17.0174L20.7077 19.1277C20.4253 19.4101 19.96 19.4101 19.6776 19.1277Z" fill="white"/>
</svg>
