<svg width="42" height="44" viewBox="0 0 42 44" fill="none" xmlns="http://www.w3.org/2000/svg">
<path fill-rule="evenodd" clip-rule="evenodd" d="M41.7144 15.7607C41.7144 14.3711 41.2245 13.0297 40.3374 11.9902C39.4503 10.9506 38.2275 10.2851 36.9003 10.1193L36.8934 10.1179C26.5116 8.87698 16.0593 8.85141 5.53322 10.1193L5.52707 10.1208C4.20116 10.2868 2.97972 10.9521 2.09368 11.9908C1.20763 13.0295 0.718393 14.3696 0.718455 15.7579C0.714355 21.1996 0.714355 31.2422 0.714355 36.6854C0.714341 38.0751 1.20428 39.4167 2.09149 40.4564C2.97871 41.4961 4.20169 42.1617 5.52912 42.3274L5.53527 42.3281C16.032 43.5854 26.4856 43.5847 36.8975 42.3274L36.9044 42.3267C38.2298 42.1599 39.4506 41.4942 40.3361 40.4554C41.2216 39.4167 41.7104 38.0768 41.7103 36.6889C41.7144 31.2478 41.7144 21.2053 41.7144 15.7614V15.7607Z" fill="#05A0D3"/>
<path fill-rule="evenodd" clip-rule="evenodd" d="M1.15869 13.5218L18.8229 28.7113C19.5211 29.1982 20.343 29.4582 21.1838 29.4582C22.0246 29.4582 22.8464 29.1982 23.5447 28.7113L41.2704 13.5197C40.8933 12.6032 40.2905 11.8062 39.5227 11.2091C38.7549 10.612 37.8493 10.2359 36.897 10.1186L36.8902 10.1179C26.4723 8.86361 15.9498 8.86408 5.53202 10.1194L5.52519 10.1201C4.5745 10.2398 3.67075 10.6171 2.90444 11.2141C2.13812 11.8111 1.53611 12.6069 1.15869 13.5218Z" fill="#0787B1"/>
<path fill-rule="evenodd" clip-rule="evenodd" d="M21.2144 9.17742C15.9738 9.17695 10.7375 9.49144 5.53186 10.1193L5.52502 10.12C4.19986 10.2872 2.97947 10.953 2.09439 11.9918C1.20931 13.0305 0.720817 14.3702 0.721189 15.7578C0.714355 21.1989 0.714355 31.2414 0.714355 36.6853C0.714355 39.5614 2.78486 41.9843 5.53186 42.3274L5.53869 42.3281C10.773 42.9553 16.0005 43.2693 21.2144 43.27V9.17742Z" fill="#08AEE5"/>
<path fill-rule="evenodd" clip-rule="evenodd" d="M21.2145 9.17742C15.9739 9.17695 10.7377 9.49144 5.53202 10.1193L5.52519 10.12C4.5745 10.2398 3.67075 10.6171 2.90444 11.2141C2.13812 11.8111 1.53611 12.6068 1.15869 13.5217L18.8229 28.7113C19.5404 29.2156 20.3809 29.4642 21.2145 29.4578V9.17742Z" fill="#0890BC"/>
<path fill-rule="evenodd" clip-rule="evenodd" d="M40.792 39.8371L21.2145 25.5149L1.63013 39.8385C2.06893 40.5217 2.64494 41.098 3.31851 41.5277C3.99209 41.9574 4.74723 42.2302 5.53196 42.3275L5.53879 42.3282C16.0348 43.5847 26.483 43.584 36.897 42.3268L36.9038 42.3261C37.6867 42.2291 38.44 41.9563 39.1114 41.5265C39.7828 41.0967 40.3563 40.5202 40.792 39.8371Z" fill="#1B82C5"/>
<path fill-rule="evenodd" clip-rule="evenodd" d="M21.2145 25.5155L1.63013 39.8385C2.06893 40.5217 2.64494 41.098 3.31851 41.5277C3.99209 41.9573 4.74723 42.2302 5.53196 42.3274L5.53879 42.3281C10.7731 42.9554 16.0006 43.2693 21.2145 43.27V25.5155Z" fill="#1E8AD0"/>
<path fill-rule="evenodd" clip-rule="evenodd" d="M1.11084 13.6489L18.857 26.6308C19.5471 27.1359 20.3705 27.4071 21.2145 27.4071C22.0585 27.4071 22.8819 27.1359 23.572 26.6308L41.325 13.6468C40.9589 12.7002 40.3547 11.8732 39.5757 11.2525C38.7967 10.6318 37.8715 10.2402 36.897 10.1186L36.8902 10.1179C26.4722 8.86361 15.9498 8.86408 5.53201 10.1194L5.52517 10.1201C4.55237 10.2421 3.62913 10.6342 2.85239 11.2551C2.07565 11.8761 1.47408 12.7029 1.11084 13.6489Z" fill="#3EB8E9"/>
<path fill-rule="evenodd" clip-rule="evenodd" d="M21.2145 9.17742C15.9739 9.17695 10.7377 9.49144 5.53201 10.1193L5.52517 10.12C4.55237 10.2421 3.62913 10.6342 2.85239 11.2551C2.07565 11.876 1.47408 12.7029 1.11084 13.6489L18.857 26.6307C19.5468 27.1364 20.3704 27.4076 21.2145 27.4071V9.17742Z" fill="#57C0EA"/>
<path d="M21.2136 20.6186C26.4972 20.6186 30.7803 16.1663 30.7803 10.6741C30.7803 5.1819 26.4972 0.729599 21.2136 0.729599C15.9301 0.729599 11.647 5.1819 11.647 10.6741C11.647 16.1663 15.9301 20.6186 21.2136 20.6186Z" fill="#1B82C5"/>
<path fill-rule="evenodd" clip-rule="evenodd" d="M21.2136 0.729599C15.9315 0.729599 11.647 5.18545 11.647 10.6741C11.647 16.1628 15.9315 20.6186 21.2136 20.6186V0.729599Z" fill="#1E8AD0"/>
<path d="M20.8623 17.7695C24.6348 17.7695 27.6929 14.5905 27.6929 10.6691C27.6929 6.74767 24.6348 3.56873 20.8623 3.56873C17.0899 3.56873 14.0317 6.74767 14.0317 10.6691C14.0317 14.5905 17.0899 17.7695 20.8623 17.7695Z" fill="#E9EFF4"/>
<path fill-rule="evenodd" clip-rule="evenodd" d="M20.8623 3.56873C17.0903 3.56873 14.0317 6.75026 14.0317 10.6691C14.0317 14.5879 17.091 17.7695 20.8623 17.7695V3.56873Z" fill="#F3F6F9"/>
<path fill-rule="evenodd" clip-rule="evenodd" d="M19.8477 9.84162V14.8608C19.8477 15.6442 20.4599 16.2814 21.2143 16.2814C21.9687 16.2814 22.581 15.6442 22.581 14.8608V9.84162L23.3231 10.613C23.4492 10.7487 23.6 10.8569 23.7667 10.9314C23.9334 11.0059 24.1128 11.045 24.2942 11.0467C24.4757 11.0483 24.6557 11.0124 24.8236 10.9409C24.9916 10.8695 25.1442 10.764 25.2725 10.6306C25.4008 10.4973 25.5023 10.3386 25.571 10.164C25.6397 9.98945 25.6743 9.80238 25.6727 9.61375C25.6712 9.42512 25.6334 9.2387 25.5618 9.06538C25.4902 8.89205 25.3861 8.73529 25.2556 8.60424L22.1806 5.4078C21.9243 5.14147 21.5767 4.99185 21.2143 4.99185C20.8519 4.99185 20.5044 5.14147 20.2481 5.4078L17.1731 8.60424C17.0426 8.73529 16.9384 8.89205 16.8668 9.06538C16.7952 9.2387 16.7575 9.42512 16.7559 9.61375C16.7543 9.80238 16.7889 9.98945 16.8576 10.164C16.9263 10.3386 17.0278 10.4973 17.1561 10.6306C17.2845 10.764 17.4371 10.8695 17.605 10.9409C17.773 11.0124 17.9529 11.0483 18.1344 11.0467C18.3159 11.045 18.4952 11.0059 18.6619 10.9314C18.8287 10.8569 18.9795 10.7487 19.1056 10.613L19.8477 9.84162Z" fill="#3EB8E9"/>
<path fill-rule="evenodd" clip-rule="evenodd" d="M21.2144 4.99149C20.8659 4.99149 20.5174 5.13072 20.2509 5.40774L17.1759 8.60419C16.6429 9.15824 16.6429 10.0589 17.1759 10.613C17.3022 10.7448 17.4524 10.8495 17.6177 10.9209C17.7831 10.9923 17.9603 11.029 18.1394 11.029C18.3184 11.029 18.4957 10.9923 18.661 10.9209C18.8264 10.8495 18.9765 10.7448 19.1029 10.613L19.8477 9.84157V14.8607C19.8477 15.6442 20.4559 16.2806 21.2144 16.2813V4.99149Z" fill="#57C0EA"/>
</svg>
