<svg width="41" height="41" viewBox="0 0 41 41" fill="none" xmlns="http://www.w3.org/2000/svg">
<path d="M4.04785 4.04746H8.09531V8.09492H4.04785V4.04746ZM28.3326 0V2.02373H26.3089V4.04746H28.3326V12.1424H30.3563V14.1661H28.3326V16.1898H32.3801V12.1424H38.4513V14.1661H40.475V0H28.3326ZM38.4513 10.1187H30.3563V2.02373H38.4513V10.1187Z" fill="black"/>
<path d="M32.3797 4.04717H36.4272V8.09463H32.3797V4.04717ZM4.04746 32.3794H8.09492V36.4269H4.04746V32.3794ZM28.3322 28.3319H30.356V30.3557H28.3322V28.3319ZM18.2136 38.4506H20.2373V40.4743H18.2136V38.4506ZM20.2373 30.3557H22.261V32.3794H20.2373V30.3557ZM20.2373 34.4031H22.261V36.4269H20.2373V34.4031ZM38.4509 24.2845H40.4746V26.3082H38.4509V24.2845ZM0 24.2845H2.02373V26.3082H0V24.2845ZM0 14.1658H2.02373V16.1896H0V14.1658ZM22.261 2.02344V4.04717H18.2136V6.0709H24.2848V2.02344H22.261Z" fill="black"/>
<path d="M38.4508 16.1896V18.2133H34.4033V20.237H28.3321V18.2133H26.3084V20.237H22.2609V22.2607H28.3321V24.2845H22.2609V22.2607H20.2372V24.2845H18.2135V22.2607H16.1897V24.2845H14.166V26.3082H18.2135V28.3319H20.2372V26.3082H24.2847V28.3319H22.2609V30.3557H24.2847V34.4031H26.3084V36.4269H28.3321V34.4031H34.4033V30.3557H36.4271V28.3319H34.4033V24.2845H30.3559V22.2607H34.4033V24.2845H36.4271V22.2607H38.4508V20.237H40.4745V16.1896H38.4508ZM32.3796 26.3082V32.3794H26.3084V26.3082H32.3796ZM26.3084 12.1421H24.2847V14.1658H22.2609V18.2133H24.2847V16.1896H26.3084V14.1658H28.3321V12.1421H26.3084ZM22.2609 38.4506H26.3084V40.4743H22.2609V38.4506ZM16.1897 2.02344H18.2135V4.04717H16.1897V2.02344Z" fill="black"/>
<path d="M32.3797 16.19H34.4034V18.2138H32.3797V16.19ZM34.4034 14.1663H36.4272V16.19H34.4034V14.1663ZM8.09492 24.285H10.1187V26.3087H8.09492V24.285ZM12.1424 38.4511V30.3562H14.1661V26.3087H12.1424V28.3324H6.07119V26.3087H2.02373V28.3324H0V40.4748H16.1898V38.4511H12.1424ZM10.1187 38.4511H2.02373V30.3562H10.1187V38.4511ZM12.1424 12.1426H14.1661V14.1663H12.1424V12.1426Z" fill="black"/>
<path d="M14.1661 0H0V12.1424H2.02373V14.1661H4.04746V12.1424H6.07119V14.1661H8.09492V12.1424H12.1424V8.09492H14.1661V6.07119H12.1424V2.02373H16.1898V0H14.1661ZM10.1187 10.1187H2.02373V2.02373H10.1187V10.1187ZM24.2848 6.07119H26.3085V8.09492H24.2848V6.07119ZM20.2373 0H22.261V2.02373H20.2373V0Z" fill="black"/>
<path d="M24.2848 12.1422V10.1185H22.261V8.09473H20.2373V10.1185H16.1898V8.09473H14.1661V12.1422H16.1898V16.1896H10.1187V14.1659H8.09492V16.1896H2.02373V18.2134H6.07119V20.2371H0V22.2608H6.07119V24.2846H8.09492V22.2608H10.1187V24.2846H12.1424V22.2608H16.1898V20.2371H14.1661V18.2134H18.2136V20.2371H22.261V18.2134H20.2373V16.1896H18.2136V12.1422H24.2848ZM12.1424 20.2371H8.09492V18.2134H12.1424V20.2371ZM18.2136 32.3795V28.332H16.1898V30.3558H14.1661V32.3795H16.1898V34.4032H14.1661V36.427H18.2136V34.4032H20.2373V32.3795H18.2136ZM36.4272 36.427V34.4032H34.4034V36.427H28.3322V38.4507H32.3797V40.4744H34.4034V38.4507H38.4509V40.4744H40.4746V36.427H36.4272ZM38.4509 28.332V30.3558H36.4272V32.3795H40.4746V28.332H38.4509Z" fill="black"/>
</svg>
